<?xml version="1.0" encoding="utf-8"?>
<!-- Generator: Adobe Illustrator 17.1.0, SVG Export Plug-In . SVG Version: 6.00 Build 0)  -->
<!DOCTYPE svg PUBLIC "-//W3C//DTD SVG 1.0//EN" "http://www.w3.org/TR/2001/REC-SVG-20010904/DTD/svg10.dtd">
<svg version="1.0" xmlns="http://www.w3.org/2000/svg" xmlns:xlink="http://www.w3.org/1999/xlink" x="0px" y="0px"
	 viewBox="0 0 128 128" enable-background="new 0 0 128 128" xml:space="preserve">
<g id="Layer_1" display="none">
</g>
<g id="Layer_2" display="none">
</g>
<g id="Layer_3">
	<path fill="#D89216" d="M19.2,75.3c3,0.9,43.1,12,46.9,13.2c4.4,1.4,5.6,1.5,7.6-0.5c1.3-1.3,50.4-58.1,51.8-59.8
		c1.5-1.7,0.5-6.6-2.7-7.3C119.6,20.1,64,7.8,62.4,7.4c-1.6-0.4-3.5-0.3-4.8,1.1c-2.6,2.9-42.3,47.3-49.3,55.3
		c-11.9,13.7-6.9,36.8,6.3,41c9.1,2.9,53.2,15.9,56.5,16.9c3.4,1,4.4,0.5,6-1.3c1.6-1.8,45.2-54.2,46.6-55.8c1.4-1.7,2.4-4,0.8-7
		c-0.9-1.7,0.2-6.7,0.6-8.2c0.4-1.7,0.2-3.7-1.1-4.7c-1.3-1-2.5-2-5.5-0.9s-4.9,10.2-3.4,16.2c-1.7,2.3-31.4,38.7-40.9,49.2
		c-2.4,2.6-2.9,2.9-6.3,1.9C56.2,107.7,20.7,97,18.6,96.3c-3.3-1-6.8-5.3-7.1-9c-0.4-3.8-0.8-5.1,0-7.9
		C12.2,76.6,15.6,74.1,19.2,75.3z M51.6,32.7c0.6-0.7,3.5-3.9,4.9-5.3c0.9-0.9,3.3-0.9,4.5-0.7c3.3,0.7,30.1,6.9,35.4,8.5
		c3.1,1,2.7,2.2,1.9,3.2c-1.1,1.4-3,3.6-4,4.8c-0.9,1.1-3.2,1.7-5.7,1.1c-4.3-1.2-32.3-7.9-34.8-8.5C51.5,35.2,50.4,34.1,51.6,32.7z
		"/>
</g>
</svg>
