<?xml version="1.0" encoding="utf-8"?>
<!-- Generator: Adobe Illustrator 17.1.0, SVG Export Plug-In . SVG Version: 6.00 Build 0)  -->
<!DOCTYPE svg PUBLIC "-//W3C//DTD SVG 1.1//EN" "http://www.w3.org/Graphics/SVG/1.1/DTD/svg11.dtd">
<svg version="1.1" id="Layer_1" xmlns="http://www.w3.org/2000/svg" xmlns:xlink="http://www.w3.org/1999/xlink" x="0px" y="0px"
	 viewBox="0 0 50 50" enable-background="new 0 0 50 50" xml:space="preserve">
<path fill="#009447" d="M25,0C11.2,0,0,11.2,0,25s11.2,25,25,25s25-11.2,25-25S38.8,0,25,0z M27.3,40.5c-0.7,0.6-1.4,0.9-2.3,0.9
	c-0.9,0-1.7-0.3-2.3-0.9c-0.7-0.6-1-1.4-1-2.4c0-0.9,0.3-1.7,1-2.3c0.6-0.6,1.4-1,2.3-1s1.7,0.3,2.4,1c0.7,0.6,1,1.4,1,2.3
	C28.3,39.1,28,39.9,27.3,40.5z M28.1,16.2L27.2,27c-0.1,1.3-0.3,2.3-0.7,3s-0.9,1-1.7,1c-0.8,0-1.3-0.3-1.6-1
	c-0.3-0.7-0.5-1.7-0.7-3l-0.7-10.5c-0.1-2.1-0.2-3.5-0.2-4.4c0-1.2,0.3-2.2,1-2.8c0.6-0.7,1.5-1,2.5-1c1.3,0,2.1,0.4,2.5,1.3
	c0.4,0.9,0.6,2.1,0.6,3.8C28.3,14.2,28.2,15.2,28.1,16.2z"/>
</svg>
