<?xml version="1.0" encoding="utf-8"?>
<!-- Generator: Adobe Illustrator 17.1.0, SVG Export Plug-In . SVG Version: 6.00 Build 0)  -->
<!DOCTYPE svg PUBLIC "-//W3C//DTD SVG 1.1//EN" "http://www.w3.org/Graphics/SVG/1.1/DTD/svg11.dtd">
<svg version="1.1" id="Layer_1" xmlns="http://www.w3.org/2000/svg" xmlns:xlink="http://www.w3.org/1999/xlink" x="0px" y="0px"
	 viewBox="575 375 50 50" enable-background="new 575 375 50 50" xml:space="preserve">
<path fill="#009444" d="M604.9,399.1h-10.5v-11.3h10.4c3.2,0,5.7,2.6,5.7,5.7S608,399.1,604.9,399.1z M600,375
	c-13.8,0-25,11.2-25,25s11.2,25,25,25s25-11.2,25-25S613.8,375,600,375z M604.9,403.3h-10.5v4.2h13.1v4.2h-13.1v4.8h-4.8v-4.8h-2.4
	v-4.2h2.4v-4.2h-2.4v-4.2h2.4v-11.5v-3.9h15.2c5.4,0,9.8,4.4,9.8,9.8C614.7,399,610.3,403.3,604.9,403.3z"/>
</svg>
