<svg version="1.1" xmlns="http://www.w3.org/2000/svg" xmlns:xlink="http://www.w3.org/1999/xlink" x="0px" y="0px"
	 viewBox="0 0 83.7 83.8" enable-background="new 0 0 83.7 83.8" xml:space="preserve">
<g id="Layer_2">
	<path fill="#009444" stroke="#009444" stroke-width="0" stroke-miterlimit="10" d="M50.1,40.4c0,0-17.5,0-17.5,0v-19
		c0,0,17.5,0,17.5,0c5.3,0,9.5,4.3,9.5,9.5S55.4,40.4,50.1,40.4z"/>
	<path fill="#009444" d="M41.9,0C18.8,0,0,18.8,0,41.9c0,23.1,18.8,41.9,41.9,41.9c23.1,0,41.9-18.8,41.9-41.9
		C83.8,18.8,65.1,0,41.9,0z M50.1,47.5c0,0-17.5,0-17.5,0c0,0,0,7,0,7h21.9v7.1c0,0-21.9,0-21.9,0v8h-8.1c0,0,0-8,0-8h-4v-7.1h4
		c0,0,0-7,0-7c0,0-4,0-4,0v-7.1h4V21.1v-6.6h25.5c9.1,0,16.5,7.4,16.5,16.5C66.6,40.2,59.2,47.5,50.1,47.5z"/>
</g>
</svg>
